<svg id="Capa_1" data-name="Capa 1" xmlns="http://www.w3.org/2000/svg" viewBox="0 0 555.17 490.89"><defs><style>.cls-1{fill:#fff;}</style></defs><title>umbrella</title><path class="cls-1" d="M294.2,61.18V48.76a16.62,16.62,0,1,0-33.24,0V61.18c-138.74,7-250.12,101.1-261,219.47,13.49-9.69,34-15.87,56.88-15.87,35.68,0,65.4,15,72.12,34.81h3c6.9-19.72,36.53-34.55,72-34.55,23,0,43.46,6.24,56.95,16V447.67a42.11,42.11,0,1,1-84.21,0,16.62,16.62,0,0,0-33.24,0,75.35,75.35,0,1,0,150.69,0V280.73c13.49-9.72,33.95-16,56.93-16,35.68,0,65.4,15,72.12,34.81h3c6.9-19.72,36.53-34.55,72.05-34.55,22.93,0,43.42,6.19,56.91,15.89C544.48,162.43,433.05,68.2,294.2,61.18Z" transform="translate(0 -32.14)"/></svg>